<svg width="354" height="31" viewBox="0 0 354 31" fill="none" xmlns="http://www.w3.org/2000/svg">
<path d="M52.1624 30.012H37.0902V28.9063H37.8985C38.8974 28.9063 39.486 28.4308 39.486 27.2145V3.33219C39.486 2.11586 38.8974 1.64268 37.8985 1.64268H37.0902V0.526798H52.1624V10.6623H51.1634V10.5501C51.1634 4.54615 49.3437 1.82395 46.0094 1.82395H43.5359V14.0562H44.166C46.0462 14.0562 46.9275 12.2545 46.9275 8.45486V8.34265H47.9288V21.1007H46.9275V21.0246C46.9275 17.3011 46.0855 15.3761 44.166 15.3761H43.5359V28.7251H45.8579C49.1553 28.7251 51.1634 25.5116 51.1634 20.0358V19.9205H52.1624V30.012ZM36.1297 30.012H27.2835V28.9063H28.0604C29.0515 28.9063 29.6816 28.4308 29.6816 27.2145V15.6351H23.2304V27.2137C23.2304 28.4347 23.8582 28.9056 24.854 28.9056H25.6309V30.0112H16.7847V28.9056H17.5561C18.555 28.9056 19.1796 28.43 19.1796 27.2137V3.33219C19.1796 2.11586 18.555 1.64268 17.5561 1.64268H16.7847V0.526798H25.6309V1.64346H24.854C23.8574 1.64346 23.2304 2.11665 23.2304 3.33297V14.0562H29.6816V3.33219C29.6816 2.11586 29.0515 1.64268 28.0604 1.64268H27.2835V0.526798H36.1297V1.64346H35.3583C34.3617 1.64346 33.7371 2.11665 33.7371 3.33297V27.2145C33.7371 28.4355 34.3617 28.9063 35.3583 28.9063H36.1297V30.012ZM16.3005 10.7345H15.307V10.6246C15.307 5.87862 13.5053 1.82316 11.403 1.82316H10.5163V27.216C10.5163 28.4347 11.1464 28.9056 12.1375 28.9056H13.058V30.0112H3.96071V28.9056H4.84195C5.83541 28.9056 6.46084 28.43 6.46084 27.216V1.82316H5.6871C3.58483 1.82316 1.7831 5.6228 1.7831 10.6246V10.7345H0.786499V0.526013H16.3005V10.7345ZM127.818 30.012H113.186V28.9063H113.996C114.995 28.9063 115.618 28.4645 115.618 27.2514V3.29295C115.618 2.08212 114.995 1.64268 113.996 1.64268H113.186V0.526798H122.034V1.64346H121.255C120.262 1.64346 119.634 2.08291 119.634 3.29373V28.7259H121.814C125.781 28.7259 126.819 24.1917 126.819 19.9974V19.8852H127.818V30.012ZM85.9863 1.64189H85.6905C84.2709 1.64189 83.5435 1.8985 83.0389 4.32486L77.6604 30.231H75.9976L72.6429 13.2841H72.606L69.1807 30.231H67.5202L62.2484 3.6602C61.9134 1.97069 61.4276 1.64111 59.9288 1.64111H59.8189V0.525229H67.7784V1.64189H67.6293C66.4844 1.64189 66.1964 1.97147 66.1964 2.74521C66.1964 2.91785 66.2278 3.26548 66.2694 3.47736L69.6241 21.4679H69.6923L71.8676 9.62803L70.7297 3.66099C70.4472 2.18884 70.1098 1.64189 68.9202 1.64189H68.7397V0.525229H76.6222V1.64189H76.4786C75.0771 1.64189 74.7106 2.13627 74.7083 3.14542C74.7083 3.42243 74.7499 3.73083 74.8158 4.06826L78.1736 21.2451H78.2466L81.4161 4.02902C81.4632 3.77791 81.4922 3.43577 81.4922 3.2184C81.4922 2.15118 81.0999 1.64189 79.5367 1.64189H79.3146V0.525229H85.9879V1.64189H85.9863ZM112.634 30.012H90.1485V28.9063H90.3369C91.8616 28.9063 92.3293 28.5006 92.3293 27.6563C92.3293 27.4185 92.2798 27.1023 92.2194 26.7648L91.5108 22.8663H86.5003L85.8051 26.7648C85.7399 27.1313 85.6929 27.3973 85.6929 27.6563C85.6929 28.5713 86.0507 28.9063 87.5707 28.9063H87.7174V30.012H81.4153V28.9063H81.7473C83.0389 28.9063 83.7766 28.6058 84.1061 26.8716L89.228 0.230957H91.1106L96.3824 26.764C96.6963 28.3672 97.5226 28.9056 98.2233 28.9056H98.8142C99.8108 28.9056 100.435 28.4638 100.435 27.2506V3.29295C100.435 2.08212 99.8108 1.64268 98.8142 1.64268H98.0405V0.526013H106.884V1.64268H106.071C105.078 1.64268 104.45 2.08212 104.45 3.29295V28.7251H106.625C110.602 28.7251 111.636 24.2223 111.636 19.9628V19.8506H112.635L112.634 30.012ZM91.2205 21.5033L89.0083 8.45486H88.9322L86.7224 21.5033H91.2205ZM232.384 10.7345H231.385V10.6223C231.385 5.87861 229.589 1.82552 227.478 1.82552H226.595V27.216C226.595 28.4316 227.219 28.9103 228.216 28.9103H229.032V30.0081H220.071V28.9103H220.918C221.917 28.9103 222.542 28.4292 222.542 27.216V1.82552H221.768C219.658 1.82552 217.864 5.62515 217.864 10.6223V10.7345H216.865V0.526013H232.384V10.7345H232.384ZM215.577 30.0081H200.503V28.9103H201.316C202.309 28.9103 202.9 28.4292 202.9 27.216V3.33376C202.9 2.11822 202.309 1.63954 201.316 1.63954H200.503V0.525229H215.577V10.6607H214.584V10.5509C214.584 4.54458 212.756 1.82473 209.424 1.82473H206.953V14.0547H207.578C209.46 14.0547 210.344 12.2396 210.344 8.45329V8.34343H211.337V21.1015H210.344V21.0285C210.344 17.2995 209.496 15.3801 207.578 15.3801H206.953V28.7211H209.273C212.568 28.7211 214.584 25.5124 214.584 20.0319V19.9244H215.577V30.0081ZM199.508 30.0081H184.434V28.9103H185.245C186.241 28.9103 186.832 28.4292 186.832 27.216V3.33376C186.832 2.11822 186.241 1.63954 185.245 1.63954H184.434V0.525229H199.508V10.6607H198.509V10.5509C198.509 4.54458 196.69 1.82473 193.348 1.82473H190.879V14.0547H191.507C193.384 14.0547 194.276 12.2396 194.276 8.45329V8.34343H195.269V21.1015H194.276V21.0285C194.276 17.2995 193.421 15.3801 191.507 15.3801H190.879V28.7211H193.201C196.498 28.7211 198.509 25.5124 198.509 20.0319V19.9244H199.508V30.0081ZM165.564 10.7345H164.573V10.6223C164.573 5.87861 162.771 1.82552 160.663 1.82552H159.784V27.216C159.784 28.4316 160.404 28.9103 161.4 28.9103H162.174V30.0081H153.257V28.9103H154.101C155.1 28.9103 155.725 28.4292 155.725 27.216V1.82552H154.951C152.843 1.82552 151.047 5.62515 151.047 10.6223V10.7345H150.05V0.526013H165.562V10.7345H165.564ZM150.014 22.8679C150.014 28.0792 146.852 30.2286 143.157 30.2286C140.477 30.2286 139.251 29.3474 137.962 28.4638L137.266 30.0065H136.493V19.8844H137.486V20.1826C137.486 27.2898 141.066 28.9087 142.865 28.9087C145.483 28.9087 146.806 26.9814 146.806 24.2223C146.806 20.8441 144.68 18.3651 141.608 16.051C138.83 13.9409 136.268 11.3576 136.268 7.05884C136.268 2.61573 139.001 0.304721 142.275 0.304721C144.999 0.304721 146.265 1.42138 146.992 2.04602L147.732 0.602916H148.466V10.7722H147.473V10.4795C147.473 4.96441 145.812 1.64111 142.536 1.64111C140.544 1.64111 139.362 3.09755 139.362 5.4376C139.362 8.20689 141.001 9.77791 144.047 12.1344C147.417 14.7515 150.014 17.5106 150.014 22.8679ZM184.216 25.9887C184.216 28.4645 183.274 30.2302 180.863 30.2302C178.439 30.2302 177.419 28.4418 177.25 24.7779L176.993 19.2895C176.854 16.3971 175.743 15.5974 174.08 15.5974H173.008V27.2153C173.008 28.4284 173.489 28.9095 174.483 28.9095H175.44V30.0073H166.526V28.9095H167.37C168.367 28.9095 168.991 28.4284 168.991 27.2153V3.33297C168.991 2.11665 168.367 1.63875 167.37 1.63875H166.526V0.524444H174.593C179.472 0.524444 182.516 3.02928 182.516 7.68113C182.516 12.5503 179.135 14.3858 176.141 14.9712V15.0442C178.594 15.3 180.83 17.1363 180.971 19.9236L181.305 26.356C181.366 27.6476 181.523 28.0243 182.15 28.0243C182.884 28.0243 183.068 27.4695 183.068 25.5477V24.4813H184.216V25.9887ZM178.277 7.75724C178.277 3.14464 176.457 1.82395 173.967 1.82395H173.008V14.2391H174.116C176.713 14.2398 178.277 12.4774 178.277 7.75724ZM353.796 28.2048C353.796 29.316 352.978 30.2286 352.102 30.2286C351.234 30.2286 350.412 29.316 350.412 28.2048C350.412 27.1038 351.233 26.2124 352.102 26.2124C352.977 26.2124 353.796 27.1038 353.796 28.2048ZM318.975 1.64032H318.185C317.267 1.64032 316.527 2.33637 316.527 3.77399V30.1211H315.087L305.879 6.90896H305.806V26.7609C305.806 28.2071 306.541 28.9079 307.465 28.9079H308.246V30.0089H302.046V28.9079H302.825C303.743 28.9079 304.483 28.2071 304.483 26.7609V3.47814C304.483 2.4478 304.081 1.63954 303.04 1.63954H302.047V0.526013H307.65L315.129 19.5077H315.194V3.77399C315.194 2.32303 314.46 1.64032 313.547 1.64032H312.776V0.526013H318.976V1.64032H318.975ZM251.85 1.64032H251.044C250.043 1.64032 249.421 2.11351 249.421 3.33454V23.8951C249.421 28.5101 246.524 30.2286 242.821 30.2286C240.177 30.2286 237.515 28.0659 237.515 23.8951C237.515 21.6594 238.906 20.6942 240.023 20.6942C241.179 20.6942 242.013 21.5103 242.013 22.8985C242.013 24.6767 240.975 25.4269 239.62 25.6207C239.62 27.1454 240.786 28.9079 242.782 28.9079C244.704 28.9079 245.368 27.8438 245.368 24.6688V3.33454C245.368 2.11586 244.783 1.64032 243.781 1.64032H242.861V0.526013H251.85V1.64032H251.85ZM348.685 30.0089H326.144V28.9079H326.369C327.891 28.9079 328.359 28.5022 328.359 27.6555C328.359 27.4177 328.304 27.1015 328.247 26.7609L327.549 22.8671H322.544L321.845 26.7609C321.78 27.1321 321.736 27.3965 321.736 27.6555C321.736 28.5681 322.089 28.9079 323.61 28.9079H323.759V30.0089H317.449V28.9079H317.781C319.086 28.9079 319.821 28.6042 320.153 26.8763L325.268 0.230957H327.143L332.417 26.7617C332.733 28.3696 333.565 28.9087 334.274 28.9087H334.862C335.856 28.9087 336.478 28.4645 336.478 27.2537V3.2953C336.478 2.08212 335.856 1.64032 334.862 1.64032H334.057V0.526013H342.951V1.64032H342.109C341.112 1.64032 340.485 2.08212 340.485 3.2953V28.7196H342.658C346.635 28.7196 347.673 24.2223 347.673 19.9966V19.8844H348.685L348.685 30.0089ZM327.253 21.5033L325.041 8.45486H324.97L322.766 21.5033H327.253ZM301.898 25.9887C301.898 28.4645 300.961 30.2302 298.548 30.2302C296.132 30.2302 295.109 28.4418 294.934 24.7779L294.678 19.2895C294.537 16.3845 293.434 15.5974 291.771 15.5974H290.699V27.2153C290.699 28.4284 291.18 28.9095 292.179 28.9095H293.091V30.0073H284.213V28.9095H285.063C286.06 28.9095 286.676 28.4284 286.676 27.2153V3.33297C286.676 2.12763 286.072 1.63875 285.1 1.63875H283.547C282.629 1.63875 282.075 2.41014 282.075 3.77242V23.4156C282.075 27.333 280.773 30.2302 276.55 30.2302C272.055 30.2302 269.437 27.4766 269.437 23.4156V3.33297C269.437 2.11429 268.848 1.63875 267.852 1.63875H267.034V0.524444H275.922V1.63875H275.111C274.107 1.63875 273.527 2.11429 273.527 3.33297V23.6738C273.527 26.9893 274.834 28.7572 277.067 28.7572C279.327 28.7572 280.71 27.2929 280.71 23.6738V3.77242C280.71 2.41014 280.195 1.63875 279.272 1.63875H278.354V0.524444H292.286C297.16 0.524444 300.209 3.02928 300.209 7.68113C300.209 12.5503 296.817 14.3858 293.828 14.9712V15.0442C296.281 15.3 298.517 17.1253 298.663 19.9236L298.995 26.356C299.058 27.6476 299.215 28.0243 299.839 28.0243C300.574 28.0243 300.76 27.4695 300.76 25.5477V24.4813H301.898V25.9887ZM295.969 7.75724C295.969 3.14464 294.146 1.82395 291.659 1.82395H290.697V14.2391H291.806C294.403 14.2398 295.969 12.4774 295.969 7.75724ZM267.112 15.1972C267.112 23.5757 264.364 30.2302 259.333 30.2302C254.427 30.2302 251.671 23.5757 251.671 15.1972C251.671 6.82185 254.31 0.305506 259.333 0.305506C264.303 0.305506 267.112 6.82185 267.112 15.1972ZM262.543 22.2048V8.27045C262.543 3.17446 261.408 1.63875 259.332 1.63875C257.255 1.63875 256.202 3.09834 256.202 8.34343V22.1632C256.202 27.0764 257.14 28.9095 259.332 28.9095C261.484 28.9095 262.543 26.9563 262.543 22.2048Z" fill="black"/>
</svg>
